
      <svg data-logo="logo" xmlns="http://www.w3.org/2000/svg" viewBox="0 0 209 42">
        <g id="logogram" transform="translate(0, 1) rotate(0) "><path d="M15 0L20.4545 5.33333L0 25.3333V14.6667L15 0Z" fill="#06D1D4"/><path d="M2.90827 28.177L15 40L30 25.3334V14.6667L20.4545 5.33337L0 25.3334L0.0041688 25.3375L20.4545 5.33337V20.6667L11.25 29.6667V20.1324L2.90827 28.177Z" fill="#3628A0"/></g>
        <g id="logotype" transform="translate(36, 7)"><path fill="#111111" d="M10.81 0.75L24.27 0.75L24.27 1.43L20.77 1.43L20.77 21.05Q20.28 22.31 19.59 23.55Q18.90 24.80 17.94 25.82Q16.97 26.84 15.67 27.45Q14.37 28.07 12.63 28.07L12.63 28.07Q10.85 28.07 9.47 27.46Q8.10 26.86 7.32 25.81Q6.54 24.76 6.54 23.45L6.54 23.45Q6.54 22.45 6.98 21.71Q7.42 20.98 8.13 20.58Q8.85 20.17 9.69 20.17L9.69 20.17Q10.43 20.17 11.14 20.52Q11.86 20.88 12.34 21.56Q12.81 22.24 12.81 23.22L12.81 23.22Q12.81 24.18 12.34 24.85Q11.86 25.51 11.12 25.85Q10.38 26.20 9.54 26.16L9.54 26.16Q9.06 26.13 8.64 25.78Q8.22 25.44 8.10 24.97L8.10 24.97Q8.38 25.69 8.98 26.22Q9.59 26.75 10.39 27.04Q11.20 27.32 12.07 27.32L12.07 27.32Q13.44 27.32 14.15 26.59Q14.86 25.86 15.11 24.32Q15.36 22.78 15.36 20.35L15.36 20.35L15.36 1.43L10.81 1.43L10.81 0.75ZM34.25 27.35L34.25 27.35Q31.59 27.35 29.67 26.20Q27.75 25.04 26.72 23.13Q25.69 21.23 25.69 18.95L25.69 18.95Q25.69 16.67 26.72 14.77Q27.75 12.86 29.67 11.70Q31.59 10.55 34.25 10.55L34.25 10.55Q36.89 10.55 38.80 11.70Q40.70 12.86 41.74 14.77Q42.77 16.67 42.77 18.95L42.77 18.95Q42.77 21.23 41.74 23.13Q40.70 25.04 38.80 26.20Q36.89 27.35 34.25 27.35ZM34.25 26.67L34.25 26.67Q35.19 26.67 35.84 26.05Q36.49 25.44 36.86 24.38Q37.24 23.31 37.40 21.91Q37.57 20.51 37.57 18.95L37.57 18.95Q37.57 17.38 37.40 15.98Q37.24 14.59 36.86 13.52Q36.49 12.46 35.84 11.84Q35.19 11.23 34.25 11.23L34.25 11.23Q33.28 11.23 32.64 11.84Q31.99 12.46 31.61 13.52Q31.24 14.59 31.07 15.98Q30.90 17.38 30.90 18.95L30.90 18.95Q30.90 20.51 31.07 21.91Q31.24 23.31 31.61 24.38Q31.99 25.44 32.64 26.05Q33.28 26.67 34.25 26.67ZM51.57 27.35L51.57 27.35Q49.59 27.35 48.51 26.66Q47.42 25.97 47.01 24.78Q46.60 23.59 46.60 22.06L46.60 22.06L46.60 11.58L44.22 11.58L44.22 10.90L51.50 10.90L51.50 21.64Q51.50 23.11 51.63 24.02Q51.76 24.93 52.13 25.36Q52.50 25.77 53.22 25.77L53.22 25.77Q54.21 25.77 54.97 25.14Q55.73 24.50 56.24 23.45Q56.75 22.40 57.01 21.16Q57.28 19.93 57.28 18.72L57.28 18.72L57.78 18.69Q57.78 19.93 57.51 21.43Q57.24 22.92 56.56 24.27Q55.88 25.62 54.66 26.48Q53.44 27.35 51.57 27.35ZM64.56 27L57.28 27L57.28 11.58L55 11.58L55 10.90L62.19 10.90L62.19 26.32L64.56 26.32L64.56 27ZM72.71 19.54L72.31 19.54Q72.31 17.78 72.61 16.17Q72.92 14.56 73.56 13.30Q74.20 12.04 75.20 11.30Q76.21 10.57 77.61 10.57L77.61 10.57Q78.84 10.57 79.67 11.09Q80.50 11.62 80.92 12.44Q81.34 13.26 81.34 14.15L81.34 14.15Q81.34 15.38 80.54 16.27Q79.75 17.16 78.45 17.16L78.45 17.16Q77.17 17.16 76.36 16.37Q75.55 15.57 75.55 14.47L75.55 14.47Q75.55 13.19 76.36 12.39Q77.17 11.58 78.43 11.58L78.43 11.58Q79.27 11.58 79.92 11.94Q80.57 12.30 80.94 12.89Q81.30 13.49 81.30 14.15L81.30 14.15L80.62 14.15Q80.62 13.40 80.24 12.75Q79.87 12.09 79.17 11.68Q78.47 11.27 77.54 11.27L77.54 11.27Q76.46 11.27 75.56 11.91Q74.67 12.54 74.04 13.69Q73.41 14.84 73.06 16.33Q72.71 17.83 72.71 19.54L72.71 19.54ZM65.47 10.90L72.71 10.90L72.71 26.32L75.44 26.32L75.44 27L65.47 27L65.47 26.32L67.85 26.32L67.85 11.58L65.47 11.58L65.47 10.90ZM82.02 10.90L89.27 10.90L89.27 26.32L91.10 26.32L91.10 27L82.02 27L82.02 26.32L84.40 26.32L84.40 11.58L82.02 11.58L82.02 10.90ZM99.94 15.82L99.94 15.82L99.94 26.32L102.32 26.32L102.32 27L93.24 27L93.24 26.32L95.08 26.32L95.08 16.25Q95.08 14.78 94.95 13.87Q94.83 12.96 94.46 12.54Q94.10 12.12 93.38 12.12L93.38 12.12Q92.40 12.12 91.63 12.76Q90.86 13.40 90.33 14.45Q89.81 15.50 89.54 16.74Q89.27 17.97 89.27 19.18L89.27 19.18L88.74 19.21Q88.74 17.97 89.03 16.47Q89.32 14.98 90.02 13.63Q90.72 12.28 91.93 11.42Q93.15 10.55 95.01 10.55L95.01 10.55Q97.00 10.55 98.06 11.23Q99.12 11.91 99.53 13.10Q99.94 14.29 99.94 15.82ZM112.24 27.35L112.24 27.35Q109.81 27.35 107.89 26.38Q105.96 25.41 104.86 23.54Q103.76 21.66 103.76 18.95L103.76 18.95Q103.76 16.24 104.81 14.36Q105.87 12.49 107.75 11.52Q109.64 10.55 112.09 10.55L112.09 10.55Q114.66 10.55 116.32 11.60Q117.98 12.65 118.80 14.33Q119.61 16.01 119.61 17.92L119.61 17.92L106.10 17.92L106.10 17.23L114.40 17.23Q114.40 16.18 114.33 15.13Q114.26 14.07 114.04 13.18Q113.82 12.30 113.35 11.77Q112.89 11.23 112.09 11.23L112.09 11.23Q111.21 11.23 110.63 11.81Q110.06 12.39 109.74 13.41Q109.43 14.43 109.29 15.76Q109.16 17.09 109.16 18.60L109.16 18.60Q109.16 20.30 109.33 21.74Q109.50 23.18 109.92 24.25Q110.34 25.32 111.11 25.91Q111.88 26.51 113.08 26.51L113.08 26.51Q115.31 26.51 116.84 25.29Q118.37 24.08 119.02 22.20L119.02 22.20L119.75 22.20Q119.07 24.41 117.23 25.88Q115.39 27.35 112.24 27.35ZM135.87 27.35L135.87 27.35Q134.73 27.35 133.85 27.03Q132.96 26.70 132.45 26.01Q131.93 25.32 131.93 24.23L131.93 24.23L131.93 16.34Q131.93 15.08 131.69 13.92Q131.46 12.75 130.75 12.02Q130.04 11.28 128.64 11.28L128.64 11.28Q127.91 11.28 127.05 11.45Q126.19 11.62 125.43 11.98Q124.67 12.35 124.19 12.94Q123.71 13.52 123.71 14.36L123.71 14.36L122.88 14.36Q122.88 13.26 123.71 12.59Q124.55 11.91 125.63 11.91L125.63 11.91Q126.79 11.91 127.64 12.53Q128.50 13.14 128.50 14.29L128.50 14.29Q128.50 15.54 127.63 16.18Q126.75 16.81 125.63 16.81L125.63 16.81Q124.44 16.81 123.64 16.16Q122.85 15.50 122.85 14.36L122.85 14.36Q122.85 13.38 123.43 12.68Q124.00 11.97 124.97 11.51Q125.93 11.06 127.11 10.84Q128.29 10.62 129.48 10.62L129.48 10.62Q132.16 10.62 133.76 11.36Q135.36 12.11 136.08 13.40Q136.80 14.70 136.80 16.34L136.80 16.34L136.80 24.74Q136.80 25.34 137.03 25.74Q137.27 26.14 137.92 26.14L137.92 26.14Q138.35 26.14 138.96 25.80Q139.56 25.46 139.91 24.76L139.91 24.76L140.33 25.20Q139.82 26.21 138.64 26.78Q137.46 27.35 135.87 27.35ZM126.61 27.35L126.61 27.35Q124.34 27.35 122.98 26.19Q121.62 25.02 121.62 23.03L121.62 23.03Q121.62 20.68 123.65 19.34Q125.68 18.00 129.41 18.00L129.41 18.00L133.56 18.00L133.56 18.60L130.55 18.60Q129.22 18.60 128.41 19.20Q127.61 19.81 127.25 20.70Q126.89 21.59 126.89 22.47L126.89 22.47Q126.89 23.31 127.11 23.99Q127.33 24.67 127.77 25.07Q128.22 25.48 128.92 25.48L128.92 25.48Q129.66 25.48 130.35 24.96Q131.04 24.45 131.48 23.37Q131.93 22.29 131.93 20.65L131.93 20.65L132.39 20.65Q132.39 22.70 131.68 24.20Q130.97 25.70 129.68 26.53Q128.40 27.35 126.61 27.35ZM141.80 27.35L141.21 27.35L141.21 21.82L141.91 21.82Q142.45 23.29 143.31 24.38Q144.18 25.46 145.34 26.05Q146.49 26.63 147.89 26.63L147.89 26.63Q148.91 26.63 149.73 26.35Q150.55 26.07 151.02 25.54Q151.50 25.00 151.50 24.23L151.50 24.23Q151.50 23.32 150.79 22.78Q150.08 22.24 148.95 21.86Q147.82 21.47 146.56 21.04Q145.30 20.61 144.17 19.96Q143.04 19.32 142.33 18.27Q141.63 17.22 141.63 15.55L141.63 15.55Q141.63 14.17 142.28 13.04Q142.94 11.91 144.15 11.25Q145.35 10.58 147.00 10.58L147.00 10.58Q148.19 10.58 149.17 10.97Q150.15 11.35 150.90 11.98L150.90 11.98L152.69 10.55L153.30 10.55L153.30 15.45L152.60 15.45Q152.16 14.36 151.41 13.42Q150.66 12.47 149.57 11.90Q148.49 11.32 147.02 11.32L147.02 11.32Q146.25 11.32 145.59 11.57Q144.93 11.83 144.55 12.30Q144.16 12.77 144.16 13.38L144.16 13.38Q144.16 14.24 144.90 14.77Q145.63 15.29 146.80 15.69Q147.96 16.10 149.26 16.53Q150.57 16.97 151.72 17.62Q152.88 18.27 153.61 19.29Q154.35 20.31 154.35 21.91L154.35 21.91Q154.35 23.75 153.45 24.95Q152.55 26.16 151.13 26.75Q149.71 27.35 148.12 27.35L148.12 27.35Q146.81 27.35 145.68 26.91Q144.55 26.48 143.64 25.69L143.64 25.69L141.80 27.35ZM164.71 27.35L164.71 27.35Q162.28 27.35 160.35 26.38Q158.43 25.41 157.32 23.54Q156.22 21.66 156.22 18.95L156.22 18.95Q156.22 16.24 157.28 14.36Q158.34 12.49 160.22 11.52Q162.10 10.55 164.55 10.55L164.55 10.55Q167.12 10.55 168.78 11.60Q170.45 12.65 171.26 14.33Q172.08 16.01 172.08 17.92L172.08 17.92L158.56 17.92L158.56 17.23L166.86 17.23Q166.86 16.18 166.79 15.13Q166.72 14.07 166.50 13.18Q166.28 12.30 165.82 11.77Q165.36 11.23 164.55 11.23L164.55 11.23Q163.68 11.23 163.10 11.81Q162.52 12.39 162.21 13.41Q161.89 14.43 161.76 15.76Q161.63 17.09 161.63 18.60L161.63 18.60Q161.63 20.30 161.79 21.74Q161.96 23.18 162.38 24.25Q162.80 25.32 163.57 25.91Q164.34 26.51 165.55 26.51L165.55 26.51Q167.77 26.51 169.30 25.29Q170.83 24.08 171.48 22.20L171.48 22.20L172.22 22.20Q171.53 24.41 169.69 25.88Q167.86 27.35 164.71 27.35Z"/></g>
        
      </svg>
    